<?xml version="1.0" encoding="utf-8" standalone="no"?>
<!DOCTYPE svg PUBLIC "-//W3C//DTD SVG 1.1//EN"
  "http://www.w3.org/Graphics/SVG/1.1/DTD/svg11.dtd">
<svg xmlns:xlink="http://www.w3.org/1999/xlink" width="1080pt" height="576pt" viewBox="0 0 1080 576" xmlns="http://www.w3.org/2000/svg" version="1.1">
 <metadata>
  <rdf:RDF xmlns:dc="http://purl.org/dc/elements/1.1/" xmlns:cc="http://creativecommons.org/ns#" xmlns:rdf="http://www.w3.org/1999/02/22-rdf-syntax-ns#">
   <cc:Work>
    <dc:type rdf:resource="http://purl.org/dc/dcmitype/StillImage"/>
    <dc:date>2023-11-24T22:47:07.557731</dc:date>
    <dc:format>image/svg+xml</dc:format>
    <dc:creator>
     <cc:Agent>
      <dc:title>Matplotlib v3.7.2, https://matplotlib.org/</dc:title>
     </cc:Agent>
    </dc:creator>
   </cc:Work>
  </rdf:RDF>
 </metadata>
 <defs>
  <style type="text/css">*{stroke-linejoin: round; stroke-linecap: butt}</style>
 </defs>
 <g id="figure_1">
  <g id="patch_1">
   <path d="M 0 576 
L 1080 576 
L 1080 0 
L 0 0 
z
" style="fill: #ffffff"/>
  </g>
  <g id="axes_1">
   <g id="patch_2">
    <path d="M 135 512.64 
L 972 512.64 
L 972 69.12 
L 135 69.12 
z
" style="fill: #ffffff"/>
   </g>
   <g id="matplotlib.axis_1">
    <g id="xtick_1">
     <g id="line2d_1">
      <path d="M 158.452677 512.64 
L 158.452677 69.12 
" clip-path="url(#p777c4c1037)" style="fill: none; stroke: #cccccc; stroke-width: 0.8; stroke-linecap: round"/>
     </g>
     <g id="text_1">
      <!-- 0 -->
      <g style="fill: #262626" transform="translate(155.271427 527.238438) scale(0.1 -0.1)">
       <defs>
        <path id="DejaVuSans-30" d="M 2034 4250 
Q 1547 4250 1301 3770 
Q 1056 3291 1056 2328 
Q 1056 1369 1301 889 
Q 1547 409 2034 409 
Q 2525 409 2770 889 
Q 3016 1369 3016 2328 
Q 3016 3291 2770 3770 
Q 2525 4250 2034 4250 
z
M 2034 4750 
Q 2819 4750 3233 4129 
Q 3647 3509 3647 2328 
Q 3647 1150 3233 529 
Q 2819 -91 2034 -91 
Q 1250 -91 836 529 
Q 422 1150 422 2328 
Q 422 3509 836 4129 
Q 1250 4750 2034 4750 
z
" transform="scale(0.015625)"/>
       </defs>
       <use xlink:href="#DejaVuSans-30"/>
      </g>
     </g>
    </g>
    <g id="xtick_2">
     <g id="line2d_2">
      <path d="M 304.380448 512.64 
L 304.380448 69.12 
" clip-path="url(#p777c4c1037)" style="fill: none; stroke: #cccccc; stroke-width: 0.8; stroke-linecap: round"/>
     </g>
     <g id="text_2">
      <!-- 10 -->
      <g style="fill: #262626" transform="translate(298.017948 527.238438) scale(0.1 -0.1)">
       <defs>
        <path id="DejaVuSans-31" d="M 794 531 
L 1825 531 
L 1825 4091 
L 703 3866 
L 703 4441 
L 1819 4666 
L 2450 4666 
L 2450 531 
L 3481 531 
L 3481 0 
L 794 0 
L 794 531 
z
" transform="scale(0.015625)"/>
       </defs>
       <use xlink:href="#DejaVuSans-31"/>
       <use xlink:href="#DejaVuSans-30" x="63.623047"/>
      </g>
     </g>
    </g>
    <g id="xtick_3">
     <g id="line2d_3">
      <path d="M 450.308219 512.64 
L 450.308219 69.12 
" clip-path="url(#p777c4c1037)" style="fill: none; stroke: #cccccc; stroke-width: 0.8; stroke-linecap: round"/>
     </g>
     <g id="text_3">
      <!-- 20 -->
      <g style="fill: #262626" transform="translate(443.945719 527.238438) scale(0.1 -0.1)">
       <defs>
        <path id="DejaVuSans-32" d="M 1228 531 
L 3431 531 
L 3431 0 
L 469 0 
L 469 531 
Q 828 903 1448 1529 
Q 2069 2156 2228 2338 
Q 2531 2678 2651 2914 
Q 2772 3150 2772 3378 
Q 2772 3750 2511 3984 
Q 2250 4219 1831 4219 
Q 1534 4219 1204 4116 
Q 875 4013 500 3803 
L 500 4441 
Q 881 4594 1212 4672 
Q 1544 4750 1819 4750 
Q 2544 4750 2975 4387 
Q 3406 4025 3406 3419 
Q 3406 3131 3298 2873 
Q 3191 2616 2906 2266 
Q 2828 2175 2409 1742 
Q 1991 1309 1228 531 
z
" transform="scale(0.015625)"/>
       </defs>
       <use xlink:href="#DejaVuSans-32"/>
       <use xlink:href="#DejaVuSans-30" x="63.623047"/>
      </g>
     </g>
    </g>
    <g id="xtick_4">
     <g id="line2d_4">
      <path d="M 596.23599 512.64 
L 596.23599 69.12 
" clip-path="url(#p777c4c1037)" style="fill: none; stroke: #cccccc; stroke-width: 0.8; stroke-linecap: round"/>
     </g>
     <g id="text_4">
      <!-- 30 -->
      <g style="fill: #262626" transform="translate(589.87349 527.238438) scale(0.1 -0.1)">
       <defs>
        <path id="DejaVuSans-33" d="M 2597 2516 
Q 3050 2419 3304 2112 
Q 3559 1806 3559 1356 
Q 3559 666 3084 287 
Q 2609 -91 1734 -91 
Q 1441 -91 1130 -33 
Q 819 25 488 141 
L 488 750 
Q 750 597 1062 519 
Q 1375 441 1716 441 
Q 2309 441 2620 675 
Q 2931 909 2931 1356 
Q 2931 1769 2642 2001 
Q 2353 2234 1838 2234 
L 1294 2234 
L 1294 2753 
L 1863 2753 
Q 2328 2753 2575 2939 
Q 2822 3125 2822 3475 
Q 2822 3834 2567 4026 
Q 2313 4219 1838 4219 
Q 1578 4219 1281 4162 
Q 984 4106 628 3988 
L 628 4550 
Q 988 4650 1302 4700 
Q 1616 4750 1894 4750 
Q 2613 4750 3031 4423 
Q 3450 4097 3450 3541 
Q 3450 3153 3228 2886 
Q 3006 2619 2597 2516 
z
" transform="scale(0.015625)"/>
       </defs>
       <use xlink:href="#DejaVuSans-33"/>
       <use xlink:href="#DejaVuSans-30" x="63.623047"/>
      </g>
     </g>
    </g>
    <g id="xtick_5">
     <g id="line2d_5">
      <path d="M 742.163761 512.64 
L 742.163761 69.12 
" clip-path="url(#p777c4c1037)" style="fill: none; stroke: #cccccc; stroke-width: 0.8; stroke-linecap: round"/>
     </g>
     <g id="text_5">
      <!-- 40 -->
      <g style="fill: #262626" transform="translate(735.801261 527.238438) scale(0.1 -0.1)">
       <defs>
        <path id="DejaVuSans-34" d="M 2419 4116 
L 825 1625 
L 2419 1625 
L 2419 4116 
z
M 2253 4666 
L 3047 4666 
L 3047 1625 
L 3713 1625 
L 3713 1100 
L 3047 1100 
L 3047 0 
L 2419 0 
L 2419 1100 
L 313 1100 
L 313 1709 
L 2253 4666 
z
" transform="scale(0.015625)"/>
       </defs>
       <use xlink:href="#DejaVuSans-34"/>
       <use xlink:href="#DejaVuSans-30" x="63.623047"/>
      </g>
     </g>
    </g>
    <g id="xtick_6">
     <g id="line2d_6">
      <path d="M 888.091532 512.64 
L 888.091532 69.12 
" clip-path="url(#p777c4c1037)" style="fill: none; stroke: #cccccc; stroke-width: 0.8; stroke-linecap: round"/>
     </g>
     <g id="text_6">
      <!-- 50 -->
      <g style="fill: #262626" transform="translate(881.729032 527.238438) scale(0.1 -0.1)">
       <defs>
        <path id="DejaVuSans-35" d="M 691 4666 
L 3169 4666 
L 3169 4134 
L 1269 4134 
L 1269 2991 
Q 1406 3038 1543 3061 
Q 1681 3084 1819 3084 
Q 2600 3084 3056 2656 
Q 3513 2228 3513 1497 
Q 3513 744 3044 326 
Q 2575 -91 1722 -91 
Q 1428 -91 1123 -41 
Q 819 9 494 109 
L 494 744 
Q 775 591 1075 516 
Q 1375 441 1709 441 
Q 2250 441 2565 725 
Q 2881 1009 2881 1497 
Q 2881 1984 2565 2268 
Q 2250 2553 1709 2553 
Q 1456 2553 1204 2497 
Q 953 2441 691 2322 
L 691 4666 
z
" transform="scale(0.015625)"/>
       </defs>
       <use xlink:href="#DejaVuSans-35"/>
       <use xlink:href="#DejaVuSans-30" x="63.623047"/>
      </g>
     </g>
    </g>
    <g id="text_7">
     <!-- Length in top 50 (weeks) -->
     <g style="fill: #262626" transform="translate(491.139063 540.916563) scale(0.1 -0.1)">
      <defs>
       <path id="DejaVuSans-4c" d="M 628 4666 
L 1259 4666 
L 1259 531 
L 3531 531 
L 3531 0 
L 628 0 
L 628 4666 
z
" transform="scale(0.015625)"/>
       <path id="DejaVuSans-65" d="M 3597 1894 
L 3597 1613 
L 953 1613 
Q 991 1019 1311 708 
Q 1631 397 2203 397 
Q 2534 397 2845 478 
Q 3156 559 3463 722 
L 3463 178 
Q 3153 47 2828 -22 
Q 2503 -91 2169 -91 
Q 1331 -91 842 396 
Q 353 884 353 1716 
Q 353 2575 817 3079 
Q 1281 3584 2069 3584 
Q 2775 3584 3186 3129 
Q 3597 2675 3597 1894 
z
M 3022 2063 
Q 3016 2534 2758 2815 
Q 2500 3097 2075 3097 
Q 1594 3097 1305 2825 
Q 1016 2553 972 2059 
L 3022 2063 
z
" transform="scale(0.015625)"/>
       <path id="DejaVuSans-6e" d="M 3513 2113 
L 3513 0 
L 2938 0 
L 2938 2094 
Q 2938 2591 2744 2837 
Q 2550 3084 2163 3084 
Q 1697 3084 1428 2787 
Q 1159 2491 1159 1978 
L 1159 0 
L 581 0 
L 581 3500 
L 1159 3500 
L 1159 2956 
Q 1366 3272 1645 3428 
Q 1925 3584 2291 3584 
Q 2894 3584 3203 3211 
Q 3513 2838 3513 2113 
z
" transform="scale(0.015625)"/>
       <path id="DejaVuSans-67" d="M 2906 1791 
Q 2906 2416 2648 2759 
Q 2391 3103 1925 3103 
Q 1463 3103 1205 2759 
Q 947 2416 947 1791 
Q 947 1169 1205 825 
Q 1463 481 1925 481 
Q 2391 481 2648 825 
Q 2906 1169 2906 1791 
z
M 3481 434 
Q 3481 -459 3084 -895 
Q 2688 -1331 1869 -1331 
Q 1566 -1331 1297 -1286 
Q 1028 -1241 775 -1147 
L 775 -588 
Q 1028 -725 1275 -790 
Q 1522 -856 1778 -856 
Q 2344 -856 2625 -561 
Q 2906 -266 2906 331 
L 2906 616 
Q 2728 306 2450 153 
Q 2172 0 1784 0 
Q 1141 0 747 490 
Q 353 981 353 1791 
Q 353 2603 747 3093 
Q 1141 3584 1784 3584 
Q 2172 3584 2450 3431 
Q 2728 3278 2906 2969 
L 2906 3500 
L 3481 3500 
L 3481 434 
z
" transform="scale(0.015625)"/>
       <path id="DejaVuSans-74" d="M 1172 4494 
L 1172 3500 
L 2356 3500 
L 2356 3053 
L 1172 3053 
L 1172 1153 
Q 1172 725 1289 603 
Q 1406 481 1766 481 
L 2356 481 
L 2356 0 
L 1766 0 
Q 1100 0 847 248 
Q 594 497 594 1153 
L 594 3053 
L 172 3053 
L 172 3500 
L 594 3500 
L 594 4494 
L 1172 4494 
z
" transform="scale(0.015625)"/>
       <path id="DejaVuSans-68" d="M 3513 2113 
L 3513 0 
L 2938 0 
L 2938 2094 
Q 2938 2591 2744 2837 
Q 2550 3084 2163 3084 
Q 1697 3084 1428 2787 
Q 1159 2491 1159 1978 
L 1159 0 
L 581 0 
L 581 4863 
L 1159 4863 
L 1159 2956 
Q 1366 3272 1645 3428 
Q 1925 3584 2291 3584 
Q 2894 3584 3203 3211 
Q 3513 2838 3513 2113 
z
" transform="scale(0.015625)"/>
       <path id="DejaVuSans-20" transform="scale(0.015625)"/>
       <path id="DejaVuSans-69" d="M 603 3500 
L 1178 3500 
L 1178 0 
L 603 0 
L 603 3500 
z
M 603 4863 
L 1178 4863 
L 1178 4134 
L 603 4134 
L 603 4863 
z
" transform="scale(0.015625)"/>
       <path id="DejaVuSans-6f" d="M 1959 3097 
Q 1497 3097 1228 2736 
Q 959 2375 959 1747 
Q 959 1119 1226 758 
Q 1494 397 1959 397 
Q 2419 397 2687 759 
Q 2956 1122 2956 1747 
Q 2956 2369 2687 2733 
Q 2419 3097 1959 3097 
z
M 1959 3584 
Q 2709 3584 3137 3096 
Q 3566 2609 3566 1747 
Q 3566 888 3137 398 
Q 2709 -91 1959 -91 
Q 1206 -91 779 398 
Q 353 888 353 1747 
Q 353 2609 779 3096 
Q 1206 3584 1959 3584 
z
" transform="scale(0.015625)"/>
       <path id="DejaVuSans-70" d="M 1159 525 
L 1159 -1331 
L 581 -1331 
L 581 3500 
L 1159 3500 
L 1159 2969 
Q 1341 3281 1617 3432 
Q 1894 3584 2278 3584 
Q 2916 3584 3314 3078 
Q 3713 2572 3713 1747 
Q 3713 922 3314 415 
Q 2916 -91 2278 -91 
Q 1894 -91 1617 61 
Q 1341 213 1159 525 
z
M 3116 1747 
Q 3116 2381 2855 2742 
Q 2594 3103 2138 3103 
Q 1681 3103 1420 2742 
Q 1159 2381 1159 1747 
Q 1159 1113 1420 752 
Q 1681 391 2138 391 
Q 2594 391 2855 752 
Q 3116 1113 3116 1747 
z
" transform="scale(0.015625)"/>
       <path id="DejaVuSans-28" d="M 1984 4856 
Q 1566 4138 1362 3434 
Q 1159 2731 1159 2009 
Q 1159 1288 1364 580 
Q 1569 -128 1984 -844 
L 1484 -844 
Q 1016 -109 783 600 
Q 550 1309 550 2009 
Q 550 2706 781 3412 
Q 1013 4119 1484 4856 
L 1984 4856 
z
" transform="scale(0.015625)"/>
       <path id="DejaVuSans-77" d="M 269 3500 
L 844 3500 
L 1563 769 
L 2278 3500 
L 2956 3500 
L 3675 769 
L 4391 3500 
L 4966 3500 
L 4050 0 
L 3372 0 
L 2619 2869 
L 1863 0 
L 1184 0 
L 269 3500 
z
" transform="scale(0.015625)"/>
       <path id="DejaVuSans-6b" d="M 581 4863 
L 1159 4863 
L 1159 1991 
L 2875 3500 
L 3609 3500 
L 1753 1863 
L 3688 0 
L 2938 0 
L 1159 1709 
L 1159 0 
L 581 0 
L 581 4863 
z
" transform="scale(0.015625)"/>
       <path id="DejaVuSans-73" d="M 2834 3397 
L 2834 2853 
Q 2591 2978 2328 3040 
Q 2066 3103 1784 3103 
Q 1356 3103 1142 2972 
Q 928 2841 928 2578 
Q 928 2378 1081 2264 
Q 1234 2150 1697 2047 
L 1894 2003 
Q 2506 1872 2764 1633 
Q 3022 1394 3022 966 
Q 3022 478 2636 193 
Q 2250 -91 1575 -91 
Q 1294 -91 989 -36 
Q 684 19 347 128 
L 347 722 
Q 666 556 975 473 
Q 1284 391 1588 391 
Q 1994 391 2212 530 
Q 2431 669 2431 922 
Q 2431 1156 2273 1281 
Q 2116 1406 1581 1522 
L 1381 1569 
Q 847 1681 609 1914 
Q 372 2147 372 2553 
Q 372 3047 722 3315 
Q 1072 3584 1716 3584 
Q 2034 3584 2315 3537 
Q 2597 3491 2834 3397 
z
" transform="scale(0.015625)"/>
       <path id="DejaVuSans-29" d="M 513 4856 
L 1013 4856 
Q 1481 4119 1714 3412 
Q 1947 2706 1947 2009 
Q 1947 1309 1714 600 
Q 1481 -109 1013 -844 
L 513 -844 
Q 928 -128 1133 580 
Q 1338 1288 1338 2009 
Q 1338 2731 1133 3434 
Q 928 4138 513 4856 
z
" transform="scale(0.015625)"/>
      </defs>
      <use xlink:href="#DejaVuSans-4c"/>
      <use xlink:href="#DejaVuSans-65" x="53.962891"/>
      <use xlink:href="#DejaVuSans-6e" x="115.486328"/>
      <use xlink:href="#DejaVuSans-67" x="178.865234"/>
      <use xlink:href="#DejaVuSans-74" x="242.341797"/>
      <use xlink:href="#DejaVuSans-68" x="281.550781"/>
      <use xlink:href="#DejaVuSans-20" x="344.929688"/>
      <use xlink:href="#DejaVuSans-69" x="376.716797"/>
      <use xlink:href="#DejaVuSans-6e" x="404.5"/>
      <use xlink:href="#DejaVuSans-20" x="467.878906"/>
      <use xlink:href="#DejaVuSans-74" x="499.666016"/>
      <use xlink:href="#DejaVuSans-6f" x="538.875"/>
      <use xlink:href="#DejaVuSans-70" x="600.056641"/>
      <use xlink:href="#DejaVuSans-20" x="663.533203"/>
      <use xlink:href="#DejaVuSans-35" x="695.320312"/>
      <use xlink:href="#DejaVuSans-30" x="758.943359"/>
      <use xlink:href="#DejaVuSans-20" x="822.566406"/>
      <use xlink:href="#DejaVuSans-28" x="854.353516"/>
      <use xlink:href="#DejaVuSans-77" x="893.367188"/>
      <use xlink:href="#DejaVuSans-65" x="975.154297"/>
      <use xlink:href="#DejaVuSans-65" x="1036.677734"/>
      <use xlink:href="#DejaVuSans-6b" x="1098.201172"/>
      <use xlink:href="#DejaVuSans-73" x="1156.111328"/>
      <use xlink:href="#DejaVuSans-29" x="1208.210938"/>
     </g>
    </g>
   </g>
   <g id="matplotlib.axis_2">
    <g id="ytick_1">
     <g id="line2d_7">
      <path d="M 135 495.098182 
L 972 495.098182 
" clip-path="url(#p777c4c1037)" style="fill: none; stroke: #cccccc; stroke-width: 0.8; stroke-linecap: round"/>
     </g>
     <g id="text_8">
      <!-- 0.00 -->
      <g style="fill: #262626" transform="translate(105.734375 498.897401) scale(0.1 -0.1)">
       <defs>
        <path id="DejaVuSans-2e" d="M 684 794 
L 1344 794 
L 1344 0 
L 684 0 
L 684 794 
z
" transform="scale(0.015625)"/>
       </defs>
       <use xlink:href="#DejaVuSans-30"/>
       <use xlink:href="#DejaVuSans-2e" x="63.623047"/>
       <use xlink:href="#DejaVuSans-30" x="95.410156"/>
       <use xlink:href="#DejaVuSans-30" x="159.033203"/>
      </g>
     </g>
    </g>
    <g id="ytick_2">
     <g id="line2d_8">
      <path d="M 135 409.483636 
L 972 409.483636 
" clip-path="url(#p777c4c1037)" style="fill: none; stroke: #cccccc; stroke-width: 0.8; stroke-linecap: round"/>
     </g>
     <g id="text_9">
      <!-- 0.05 -->
      <g style="fill: #262626" transform="translate(105.734375 413.282855) scale(0.1 -0.1)">
       <use xlink:href="#DejaVuSans-30"/>
       <use xlink:href="#DejaVuSans-2e" x="63.623047"/>
       <use xlink:href="#DejaVuSans-30" x="95.410156"/>
       <use xlink:href="#DejaVuSans-35" x="159.033203"/>
      </g>
     </g>
    </g>
    <g id="ytick_3">
     <g id="line2d_9">
      <path d="M 135 323.869091 
L 972 323.869091 
" clip-path="url(#p777c4c1037)" style="fill: none; stroke: #cccccc; stroke-width: 0.8; stroke-linecap: round"/>
     </g>
     <g id="text_10">
      <!-- 0.10 -->
      <g style="fill: #262626" transform="translate(105.734375 327.66831) scale(0.1 -0.1)">
       <use xlink:href="#DejaVuSans-30"/>
       <use xlink:href="#DejaVuSans-2e" x="63.623047"/>
       <use xlink:href="#DejaVuSans-31" x="95.410156"/>
       <use xlink:href="#DejaVuSans-30" x="159.033203"/>
      </g>
     </g>
    </g>
    <g id="ytick_4">
     <g id="line2d_10">
      <path d="M 135 238.254545 
L 972 238.254545 
" clip-path="url(#p777c4c1037)" style="fill: none; stroke: #cccccc; stroke-width: 0.8; stroke-linecap: round"/>
     </g>
     <g id="text_11">
      <!-- 0.15 -->
      <g style="fill: #262626" transform="translate(105.734375 242.053764) scale(0.1 -0.1)">
       <use xlink:href="#DejaVuSans-30"/>
       <use xlink:href="#DejaVuSans-2e" x="63.623047"/>
       <use xlink:href="#DejaVuSans-31" x="95.410156"/>
       <use xlink:href="#DejaVuSans-35" x="159.033203"/>
      </g>
     </g>
    </g>
    <g id="ytick_5">
     <g id="line2d_11">
      <path d="M 135 152.64 
L 972 152.64 
" clip-path="url(#p777c4c1037)" style="fill: none; stroke: #cccccc; stroke-width: 0.8; stroke-linecap: round"/>
     </g>
     <g id="text_12">
      <!-- 0.20 -->
      <g style="fill: #262626" transform="translate(105.734375 156.439219) scale(0.1 -0.1)">
       <use xlink:href="#DejaVuSans-30"/>
       <use xlink:href="#DejaVuSans-2e" x="63.623047"/>
       <use xlink:href="#DejaVuSans-32" x="95.410156"/>
       <use xlink:href="#DejaVuSans-30" x="159.033203"/>
      </g>
     </g>
    </g>
    <g id="text_13">
     <!-- Normalized Frequency -->
     <g style="fill: #262626" transform="translate(99.654687 346.654219) rotate(-90) scale(0.1 -0.1)">
      <defs>
       <path id="DejaVuSans-4e" d="M 628 4666 
L 1478 4666 
L 3547 763 
L 3547 4666 
L 4159 4666 
L 4159 0 
L 3309 0 
L 1241 3903 
L 1241 0 
L 628 0 
L 628 4666 
z
" transform="scale(0.015625)"/>
       <path id="DejaVuSans-72" d="M 2631 2963 
Q 2534 3019 2420 3045 
Q 2306 3072 2169 3072 
Q 1681 3072 1420 2755 
Q 1159 2438 1159 1844 
L 1159 0 
L 581 0 
L 581 3500 
L 1159 3500 
L 1159 2956 
Q 1341 3275 1631 3429 
Q 1922 3584 2338 3584 
Q 2397 3584 2469 3576 
Q 2541 3569 2628 3553 
L 2631 2963 
z
" transform="scale(0.015625)"/>
       <path id="DejaVuSans-6d" d="M 3328 2828 
Q 3544 3216 3844 3400 
Q 4144 3584 4550 3584 
Q 5097 3584 5394 3201 
Q 5691 2819 5691 2113 
L 5691 0 
L 5113 0 
L 5113 2094 
Q 5113 2597 4934 2840 
Q 4756 3084 4391 3084 
Q 3944 3084 3684 2787 
Q 3425 2491 3425 1978 
L 3425 0 
L 2847 0 
L 2847 2094 
Q 2847 2600 2669 2842 
Q 2491 3084 2119 3084 
Q 1678 3084 1418 2786 
Q 1159 2488 1159 1978 
L 1159 0 
L 581 0 
L 581 3500 
L 1159 3500 
L 1159 2956 
Q 1356 3278 1631 3431 
Q 1906 3584 2284 3584 
Q 2666 3584 2933 3390 
Q 3200 3197 3328 2828 
z
" transform="scale(0.015625)"/>
       <path id="DejaVuSans-61" d="M 2194 1759 
Q 1497 1759 1228 1600 
Q 959 1441 959 1056 
Q 959 750 1161 570 
Q 1363 391 1709 391 
Q 2188 391 2477 730 
Q 2766 1069 2766 1631 
L 2766 1759 
L 2194 1759 
z
M 3341 1997 
L 3341 0 
L 2766 0 
L 2766 531 
Q 2569 213 2275 61 
Q 1981 -91 1556 -91 
Q 1019 -91 701 211 
Q 384 513 384 1019 
Q 384 1609 779 1909 
Q 1175 2209 1959 2209 
L 2766 2209 
L 2766 2266 
Q 2766 2663 2505 2880 
Q 2244 3097 1772 3097 
Q 1472 3097 1187 3025 
Q 903 2953 641 2809 
L 641 3341 
Q 956 3463 1253 3523 
Q 1550 3584 1831 3584 
Q 2591 3584 2966 3190 
Q 3341 2797 3341 1997 
z
" transform="scale(0.015625)"/>
       <path id="DejaVuSans-6c" d="M 603 4863 
L 1178 4863 
L 1178 0 
L 603 0 
L 603 4863 
z
" transform="scale(0.015625)"/>
       <path id="DejaVuSans-7a" d="M 353 3500 
L 3084 3500 
L 3084 2975 
L 922 459 
L 3084 459 
L 3084 0 
L 275 0 
L 275 525 
L 2438 3041 
L 353 3041 
L 353 3500 
z
" transform="scale(0.015625)"/>
       <path id="DejaVuSans-64" d="M 2906 2969 
L 2906 4863 
L 3481 4863 
L 3481 0 
L 2906 0 
L 2906 525 
Q 2725 213 2448 61 
Q 2172 -91 1784 -91 
Q 1150 -91 751 415 
Q 353 922 353 1747 
Q 353 2572 751 3078 
Q 1150 3584 1784 3584 
Q 2172 3584 2448 3432 
Q 2725 3281 2906 2969 
z
M 947 1747 
Q 947 1113 1208 752 
Q 1469 391 1925 391 
Q 2381 391 2643 752 
Q 2906 1113 2906 1747 
Q 2906 2381 2643 2742 
Q 2381 3103 1925 3103 
Q 1469 3103 1208 2742 
Q 947 2381 947 1747 
z
" transform="scale(0.015625)"/>
       <path id="DejaVuSans-46" d="M 628 4666 
L 3309 4666 
L 3309 4134 
L 1259 4134 
L 1259 2759 
L 3109 2759 
L 3109 2228 
L 1259 2228 
L 1259 0 
L 628 0 
L 628 4666 
z
" transform="scale(0.015625)"/>
       <path id="DejaVuSans-71" d="M 947 1747 
Q 947 1113 1208 752 
Q 1469 391 1925 391 
Q 2381 391 2643 752 
Q 2906 1113 2906 1747 
Q 2906 2381 2643 2742 
Q 2381 3103 1925 3103 
Q 1469 3103 1208 2742 
Q 947 2381 947 1747 
z
M 2906 525 
Q 2725 213 2448 61 
Q 2172 -91 1784 -91 
Q 1150 -91 751 415 
Q 353 922 353 1747 
Q 353 2572 751 3078 
Q 1150 3584 1784 3584 
Q 2172 3584 2448 3432 
Q 2725 3281 2906 2969 
L 2906 3500 
L 3481 3500 
L 3481 -1331 
L 2906 -1331 
L 2906 525 
z
" transform="scale(0.015625)"/>
       <path id="DejaVuSans-75" d="M 544 1381 
L 544 3500 
L 1119 3500 
L 1119 1403 
Q 1119 906 1312 657 
Q 1506 409 1894 409 
Q 2359 409 2629 706 
Q 2900 1003 2900 1516 
L 2900 3500 
L 3475 3500 
L 3475 0 
L 2900 0 
L 2900 538 
Q 2691 219 2414 64 
Q 2138 -91 1772 -91 
Q 1169 -91 856 284 
Q 544 659 544 1381 
z
M 1991 3584 
L 1991 3584 
z
" transform="scale(0.015625)"/>
       <path id="DejaVuSans-63" d="M 3122 3366 
L 3122 2828 
Q 2878 2963 2633 3030 
Q 2388 3097 2138 3097 
Q 1578 3097 1268 2742 
Q 959 2388 959 1747 
Q 959 1106 1268 751 
Q 1578 397 2138 397 
Q 2388 397 2633 464 
Q 2878 531 3122 666 
L 3122 134 
Q 2881 22 2623 -34 
Q 2366 -91 2075 -91 
Q 1284 -91 818 406 
Q 353 903 353 1747 
Q 353 2603 823 3093 
Q 1294 3584 2113 3584 
Q 2378 3584 2631 3529 
Q 2884 3475 3122 3366 
z
" transform="scale(0.015625)"/>
       <path id="DejaVuSans-79" d="M 2059 -325 
Q 1816 -950 1584 -1140 
Q 1353 -1331 966 -1331 
L 506 -1331 
L 506 -850 
L 844 -850 
Q 1081 -850 1212 -737 
Q 1344 -625 1503 -206 
L 1606 56 
L 191 3500 
L 800 3500 
L 1894 763 
L 2988 3500 
L 3597 3500 
L 2059 -325 
z
" transform="scale(0.015625)"/>
      </defs>
      <use xlink:href="#DejaVuSans-4e"/>
      <use xlink:href="#DejaVuSans-6f" x="74.804688"/>
      <use xlink:href="#DejaVuSans-72" x="135.986328"/>
      <use xlink:href="#DejaVuSans-6d" x="175.349609"/>
      <use xlink:href="#DejaVuSans-61" x="272.761719"/>
      <use xlink:href="#DejaVuSans-6c" x="334.041016"/>
      <use xlink:href="#DejaVuSans-69" x="361.824219"/>
      <use xlink:href="#DejaVuSans-7a" x="389.607422"/>
      <use xlink:href="#DejaVuSans-65" x="442.097656"/>
      <use xlink:href="#DejaVuSans-64" x="503.621094"/>
      <use xlink:href="#DejaVuSans-20" x="567.097656"/>
      <use xlink:href="#DejaVuSans-46" x="598.884766"/>
      <use xlink:href="#DejaVuSans-72" x="649.154297"/>
      <use xlink:href="#DejaVuSans-65" x="688.017578"/>
      <use xlink:href="#DejaVuSans-71" x="749.541016"/>
      <use xlink:href="#DejaVuSans-75" x="813.017578"/>
      <use xlink:href="#DejaVuSans-65" x="876.396484"/>
      <use xlink:href="#DejaVuSans-6e" x="937.919922"/>
      <use xlink:href="#DejaVuSans-63" x="1001.298828"/>
      <use xlink:href="#DejaVuSans-79" x="1056.279297"/>
     </g>
    </g>
   </g>
   <g id="PolyCollection_1"/>
   <g id="PolyCollection_2"/>
   <g id="PolyCollection_3"/>
   <g id="PolyCollection_4"/>
   <g id="PolyCollection_5"/>
   <g id="PolyCollection_6"/>
   <g id="line2d_12">
    <path d="M 173.045455 287.273955 
L 175.130137 427.329412 
L 177.214819 458.954838 
L 179.299502 445.401084 
L 181.384184 454.43692 
L 183.468867 445.401084 
L 185.553549 486.062346 
L 187.638232 481.544428 
L 189.722914 486.062346 
L 191.807597 490.580264 
L 193.892279 490.580264 
L 195.976961 481.544428 
L 198.061644 490.580264 
L 200.146326 490.580264 
L 204.315691 490.580264 
L 206.400374 486.062346 
L 235.585928 481.544428 
L 237.67061 490.580264 
L 271.025529 490.580264 
L 291.872354 490.580264 
L 296.041719 486.062346 
L 300.211083 472.508592 
L 327.311955 490.580264 
L 360.666874 486.062346 
L 389.852428 490.580264 
L 416.9533 490.580264 
L 423.207347 481.544428 
L 427.376712 490.580264 
L 466.985679 490.580264 
L 471.155044 490.580264 
L 479.493773 490.580264 
L 487.832503 490.580264 
L 539.949564 490.580264 
L 554.542341 490.580264 
L 556.627024 490.580264 
L 602.490037 490.580264 
L 614.998132 486.062346 
L 619.167497 472.508592 
L 656.691781 490.580264 
L 660.861146 490.580264 
L 679.623288 490.580264 
L 690.0467 490.580264 
L 742.163761 486.062346 
L 746.333126 454.43692 
L 773.433998 486.062346 
L 775.51868 490.580264 
L 783.85741 477.02651 
L 804.704234 490.580264 
L 806.788917 481.544428 
L 831.805106 490.580264 
L 844.3132 486.062346 
L 863.075342 490.580264 
L 867.244707 472.508592 
L 869.32939 314.381463 
L 871.414072 309.863545 
L 873.498755 377.632315 
L 875.583437 418.293576 
L 877.66812 445.401084 
L 879.752802 467.990674 
L 881.837484 490.580264 
L 883.922167 490.580264 
L 898.514944 486.062346 
L 908.938356 440.883166 
L 911.023039 454.43692 
L 913.107721 477.02651 
L 915.192403 477.02651 
L 917.277086 486.062346 
L 919.361768 486.062346 
L 921.446451 486.062346 
L 923.531133 490.580264 
L 925.615816 477.02651 
L 927.700498 486.062346 
L 929.785181 490.580264 
L 931.869863 486.062346 
" clip-path="url(#p777c4c1037)" style="fill: none; stroke: #1f77b4; stroke-width: 1.5; stroke-linecap: round"/>
   </g>
   <g id="line2d_13">
    <path d="M 173.045455 211.150443 
L 175.130137 411.921571 
L 177.214819 449.207638 
L 179.299502 463.548433 
L 181.384184 477.889228 
L 183.468867 486.493705 
L 185.553549 469.284751 
L 187.638232 477.889228 
L 189.722914 492.230023 
L 191.807597 475.021069 
L 193.892279 486.493705 
L 198.061644 492.230023 
L 200.146326 489.361864 
L 202.231009 486.493705 
L 206.400374 492.230023 
L 208.485056 489.361864 
L 233.501245 492.230023 
L 235.585928 489.361864 
L 237.67061 483.625546 
L 243.924658 492.230023 
L 273.110212 492.230023 
L 275.194894 492.230023 
L 289.787671 492.230023 
L 293.957036 492.230023 
L 296.041719 492.230023 
L 300.211083 480.757387 
L 302.295766 489.361864 
L 337.735367 492.230023 
L 358.582192 492.230023 
L 360.666874 483.625546 
L 362.751557 472.15291 
L 364.836239 483.625546 
L 371.090286 492.230023 
L 383.598381 492.230023 
L 389.852428 486.493705 
L 404.445205 492.230023 
L 412.783935 483.625546 
L 416.9533 489.361864 
L 423.207347 486.493705 
L 427.376712 486.493705 
L 429.461395 492.230023 
L 475.324408 492.230023 
L 477.409091 492.230023 
L 479.493773 489.361864 
L 485.747821 489.361864 
L 487.832503 489.361864 
L 492.001868 483.625546 
L 508.679328 492.230023 
L 529.526152 489.361864 
L 531.610834 492.230023 
L 535.780199 457.812115 
L 539.949564 486.493705 
L 550.372976 480.757387 
L 556.627024 486.493705 
L 592.066625 492.230023 
L 594.151308 492.230023 
L 614.998132 480.757387 
L 619.167497 477.889228 
L 654.607098 492.230023 
L 656.691781 492.230023 
L 658.776463 492.230023 
L 660.861146 477.889228 
L 662.945828 489.361864 
L 681.70797 486.493705 
L 683.792653 492.230023 
L 721.316936 472.15291 
L 725.486301 489.361864 
L 742.163761 475.021069 
L 748.417808 492.230023 
L 777.603362 492.230023 
L 781.772727 486.493705 
L 783.85741 486.493705 
L 804.704234 477.889228 
L 806.788917 483.625546 
L 831.805106 486.493705 
L 844.3132 469.284751 
L 867.244707 469.284751 
L 869.32939 277.1181 
L 871.414072 383.239982 
L 873.498755 426.262366 
L 875.583437 446.339479 
L 877.66812 477.889228 
L 879.752802 480.757387 
L 886.006849 492.230023 
L 896.430262 489.361864 
L 898.514944 472.15291 
L 902.684309 492.230023 
L 908.938356 475.021069 
L 911.023039 466.416592 
L 913.107721 492.230023 
L 915.192403 477.889228 
L 917.277086 486.493705 
L 919.361768 489.361864 
L 921.446451 492.230023 
L 923.531133 483.625546 
L 925.615816 489.361864 
L 929.785181 492.230023 
L 931.869863 492.230023 
" clip-path="url(#p777c4c1037)" style="fill: none; stroke: #ff7f0e; stroke-width: 1.5; stroke-linecap: round"/>
   </g>
   <g id="line2d_14">
    <path d="M 173.045455 232.399207 
L 175.130137 384.321506 
L 177.214819 469.777799 
L 179.299502 444.457416 
L 181.384184 460.282655 
L 183.468867 460.282655 
L 185.553549 460.282655 
L 187.638232 482.43799 
L 189.722914 485.603038 
L 191.807597 491.933134 
L 193.892279 488.768086 
L 195.976961 482.43799 
L 200.146326 485.603038 
L 204.315691 488.768086 
L 210.569738 485.603038 
L 216.823786 491.933134 
L 233.501245 491.933134 
L 235.585928 488.768086 
L 237.67061 485.603038 
L 258.517435 491.933134 
L 275.194894 491.933134 
L 289.787671 491.933134 
L 296.041719 491.933134 
L 300.211083 491.933134 
L 352.328144 491.933134 
L 360.666874 482.43799 
L 362.751557 491.933134 
L 364.836239 482.43799 
L 379.429016 491.933134 
L 412.783935 491.933134 
L 416.9533 485.603038 
L 423.207347 491.933134 
L 427.376712 476.107894 
L 475.324408 491.933134 
L 479.493773 479.272942 
L 487.832503 488.768086 
L 492.001868 479.272942 
L 533.695517 491.933134 
L 535.780199 491.933134 
L 539.949564 485.603038 
L 550.372976 476.107894 
L 554.542341 453.952559 
L 556.627024 485.603038 
L 592.066625 491.933134 
L 594.151308 491.933134 
L 596.23599 491.933134 
L 598.320672 491.933134 
L 600.405355 491.933134 
L 602.490037 491.933134 
L 614.998132 488.768086 
L 660.861146 482.43799 
L 662.945828 472.942847 
L 677.538605 491.933134 
L 679.623288 485.603038 
L 681.70797 491.933134 
L 696.300747 491.933134 
L 700.470112 491.933134 
L 710.893524 491.933134 
L 721.316936 488.768086 
L 725.486301 488.768086 
L 742.163761 491.933134 
L 748.417808 491.933134 
L 781.772727 466.612751 
L 804.704234 491.933134 
L 806.788917 479.272942 
L 844.3132 488.768086 
L 867.244707 469.777799 
L 869.32939 270.379782 
L 871.414072 400.146745 
L 873.498755 406.476841 
L 875.583437 447.622463 
L 877.66812 476.107894 
L 879.752802 482.43799 
L 881.837484 491.933134 
L 883.922167 488.768086 
L 890.176214 491.933134 
L 896.430262 476.107894 
L 898.514944 469.777799 
L 900.599626 491.933134 
L 908.938356 469.777799 
L 911.023039 466.612751 
L 913.107721 476.107894 
L 917.277086 466.612751 
L 919.361768 491.933134 
L 921.446451 485.603038 
L 925.615816 491.933134 
L 927.700498 491.933134 
L 931.869863 491.933134 
" clip-path="url(#p777c4c1037)" style="fill: none; stroke: #2ca02c; stroke-width: 1.5; stroke-linecap: round"/>
   </g>
   <g id="line2d_15">
    <path d="M 173.045455 89.28 
L 175.130137 377.28 
L 177.214819 461.061818 
L 179.299502 474.152727 
L 181.384184 461.061818 
L 183.468867 471.534545 
L 185.553549 440.116364 
L 187.638232 487.243636 
L 189.722914 492.48 
L 191.807597 492.48 
L 193.892279 489.861818 
L 195.976961 489.861818 
L 200.146326 489.861818 
L 202.231009 487.243636 
L 204.315691 489.861818 
L 216.823786 492.48 
L 233.501245 492.48 
L 235.585928 479.389091 
L 237.67061 474.152727 
L 239.755293 482.007273 
L 241.839975 489.861818 
L 243.924658 492.48 
L 246.00934 484.625455 
L 248.094022 492.48 
L 275.194894 492.48 
L 285.618306 492.48 
L 291.872354 489.861818 
L 298.126401 479.389091 
L 300.211083 484.625455 
L 302.295766 492.48 
L 360.666874 492.48 
L 362.751557 487.243636 
L 364.836239 487.243636 
L 394.021793 492.48 
L 416.9533 492.48 
L 425.29203 474.152727 
L 427.376712 492.48 
L 477.409091 489.861818 
L 479.493773 458.443636 
L 489.917186 492.48 
L 492.001868 489.861818 
L 531.610834 492.48 
L 537.864882 492.48 
L 539.949564 489.861818 
L 552.457659 487.243636 
L 554.542341 484.625455 
L 556.627024 489.861818 
L 583.727895 492.48 
L 592.066625 492.48 
L 600.405355 484.625455 
L 602.490037 479.389091 
L 617.082814 489.861818 
L 619.167497 489.861818 
L 648.353051 484.625455 
L 662.945828 482.007273 
L 679.623288 489.861818 
L 681.70797 476.770909 
L 710.893524 487.243636 
L 712.978207 492.48 
L 721.316936 492.48 
L 723.401619 487.243636 
L 725.486301 487.243636 
L 746.333126 489.861818 
L 783.85741 479.389091 
L 785.942092 474.152727 
L 804.704234 492.48 
L 806.788917 479.389091 
L 808.873599 489.861818 
L 844.3132 489.861818 
L 846.397883 476.770909 
L 869.32939 484.625455 
L 871.414072 330.152727 
L 873.498755 419.170909 
L 875.583437 424.407273 
L 877.66812 468.916364 
L 879.752802 484.625455 
L 881.837484 476.770909 
L 883.922167 489.861818 
L 886.006849 487.243636 
L 900.599626 476.770909 
L 902.684309 487.243636 
L 906.853674 492.48 
L 908.938356 492.48 
L 911.023039 468.916364 
L 913.107721 484.625455 
L 915.192403 471.534545 
L 917.277086 482.007273 
L 919.361768 492.48 
L 921.446451 492.48 
L 923.531133 489.861818 
L 925.615816 492.48 
L 927.700498 489.861818 
L 931.869863 492.48 
L 933.954545 484.625455 
" clip-path="url(#p777c4c1037)" style="fill: none; stroke: #d62728; stroke-width: 1.5; stroke-linecap: round"/>
   </g>
   <g id="line2d_16">
    <path d="M 173.045455 134.45638 
L 175.130137 422.363701 
L 177.214819 437.516718 
L 179.299502 449.639131 
L 181.384184 467.822751 
L 183.468867 473.883958 
L 185.553549 464.792148 
L 187.638232 486.006372 
L 189.722914 486.006372 
L 193.892279 489.036975 
L 195.976961 489.036975 
L 200.146326 476.914562 
L 202.231009 489.036975 
L 204.315691 492.067578 
L 229.33188 492.067578 
L 231.416563 464.792148 
L 235.585928 479.945165 
L 237.67061 470.853355 
L 264.771482 492.067578 
L 296.041719 489.036975 
L 300.211083 482.975768 
L 304.380448 492.067578 
L 306.465131 492.067578 
L 348.15878 492.067578 
L 352.328144 492.067578 
L 354.412827 489.036975 
L 362.751557 486.006372 
L 364.836239 482.975768 
L 427.376712 479.945165 
L 429.461395 492.067578 
L 479.493773 489.036975 
L 492.001868 486.006372 
L 535.780199 492.067578 
L 539.949564 489.036975 
L 550.372976 486.006372 
L 554.542341 489.036975 
L 556.627024 476.914562 
L 594.151308 492.067578 
L 598.320672 473.883958 
L 602.490037 486.006372 
L 614.998132 479.945165 
L 619.167497 482.975768 
L 646.268369 492.067578 
L 648.353051 476.914562 
L 660.861146 458.730941 
L 662.945828 489.036975 
L 679.623288 486.006372 
L 681.70797 489.036975 
L 683.792653 492.067578 
L 710.893524 479.945165 
L 725.486301 489.036975 
L 742.163761 486.006372 
L 746.333126 489.036975 
L 771.349315 492.067578 
L 781.772727 489.036975 
L 783.85741 492.067578 
L 804.704234 489.036975 
L 806.788917 482.975768 
L 838.059153 492.067578 
L 844.3132 486.006372 
L 860.99066 492.067578 
L 867.244707 467.822751 
L 869.32939 328.414996 
L 871.414072 389.027064 
L 873.498755 434.486114 
L 875.583437 458.730941 
L 877.66812 464.792148 
L 883.922167 489.036975 
L 894.345579 492.067578 
L 898.514944 476.914562 
L 900.599626 489.036975 
L 906.853674 492.067578 
L 908.938356 464.792148 
L 911.023039 476.914562 
L 913.107721 467.822751 
L 915.192403 489.036975 
L 917.277086 489.036975 
L 919.361768 482.975768 
L 921.446451 482.975768 
L 923.531133 489.036975 
L 925.615816 492.067578 
L 927.700498 492.067578 
L 929.785181 492.067578 
L 931.869863 479.945165 
" clip-path="url(#p777c4c1037)" style="fill: none; stroke: #9467bd; stroke-width: 1.5; stroke-linecap: round"/>
   </g>
   <g id="line2d_17">
    <path d="M 173.045455 133.222268 
L 175.130137 400.951603 
L 177.214819 448.024892 
L 179.299502 471.561537 
L 181.384184 474.503618 
L 183.468867 471.561537 
L 185.553549 462.735295 
L 187.638232 489.214021 
L 189.722914 483.329859 
L 191.807597 486.27194 
L 193.892279 489.214021 
L 195.976961 483.329859 
L 200.146326 489.214021 
L 202.231009 492.156101 
L 204.315691 492.156101 
L 235.585928 465.677376 
L 237.67061 474.503618 
L 241.839975 489.214021 
L 248.094022 492.156101 
L 256.432752 492.156101 
L 262.6868 489.214021 
L 264.771482 492.156101 
L 266.856164 492.156101 
L 289.787671 492.156101 
L 293.957036 492.156101 
L 296.041719 489.214021 
L 300.211083 480.387779 
L 302.295766 492.156101 
L 327.311955 492.156101 
L 343.989415 492.156101 
L 346.074097 492.156101 
L 348.15878 492.156101 
L 352.328144 492.156101 
L 358.582192 492.156101 
L 360.666874 492.156101 
L 362.751557 480.387779 
L 364.836239 471.561537 
L 366.920922 492.156101 
L 369.005604 492.156101 
L 371.090286 492.156101 
L 377.344334 492.156101 
L 394.021793 492.156101 
L 400.275841 492.156101 
L 402.360523 492.156101 
L 412.783935 489.214021 
L 416.9533 492.156101 
L 423.207347 477.445698 
L 427.376712 489.214021 
L 429.461395 489.214021 
L 458.646949 492.156101 
L 466.985679 492.156101 
L 475.324408 480.387779 
L 479.493773 489.214021 
L 485.747821 492.156101 
L 487.832503 486.27194 
L 489.917186 492.156101 
L 492.001868 486.27194 
L 517.018057 492.156101 
L 531.610834 492.156101 
L 539.949564 492.156101 
L 550.372976 486.27194 
L 554.542341 471.561537 
L 592.066625 492.156101 
L 596.23599 492.156101 
L 598.320672 486.27194 
L 602.490037 486.27194 
L 614.998132 492.156101 
L 617.082814 492.156101 
L 619.167497 483.329859 
L 658.776463 489.214021 
L 660.861146 492.156101 
L 662.945828 492.156101 
L 679.623288 480.387779 
L 681.70797 477.445698 
L 708.808842 492.156101 
L 717.147572 492.156101 
L 721.316936 486.27194 
L 725.486301 486.27194 
L 742.163761 489.214021 
L 746.333126 489.214021 
L 773.433998 489.214021 
L 775.51868 486.27194 
L 777.603362 492.156101 
L 781.772727 489.214021 
L 783.85741 477.445698 
L 802.619552 492.156101 
L 804.704234 486.27194 
L 806.788917 480.387779 
L 808.873599 492.156101 
L 817.212329 492.156101 
L 840.143836 492.156101 
L 844.3132 465.677376 
L 867.244707 465.677376 
L 869.32939 368.588716 
L 871.414072 445.082812 
L 873.498755 430.372409 
L 875.583437 436.25657 
L 877.66812 468.619456 
L 879.752802 486.27194 
L 881.837484 486.27194 
L 883.922167 492.156101 
L 886.006849 492.156101 
L 898.514944 474.503618 
L 900.599626 489.214021 
L 904.768991 492.156101 
L 908.938356 489.214021 
L 911.023039 474.503618 
L 913.107721 480.387779 
L 915.192403 489.214021 
L 917.277086 474.503618 
L 919.361768 492.156101 
L 921.446451 477.445698 
L 923.531133 492.156101 
L 925.615816 492.156101 
L 929.785181 492.156101 
L 931.869863 486.27194 
" clip-path="url(#p777c4c1037)" style="fill: none; stroke: #8c564b; stroke-width: 1.5; stroke-linecap: round"/>
   </g>
   <g id="patch_3">
    <path d="M 135 512.64 
L 135 69.12 
" style="fill: none; stroke: #cccccc; stroke-width: 0.8; stroke-linejoin: miter; stroke-linecap: square"/>
   </g>
   <g id="patch_4">
    <path d="M 972 512.64 
L 972 69.12 
" style="fill: none; stroke: #cccccc; stroke-width: 0.8; stroke-linejoin: miter; stroke-linecap: square"/>
   </g>
   <g id="patch_5">
    <path d="M 135 512.64 
L 972 512.64 
" style="fill: none; stroke: #cccccc; stroke-width: 0.8; stroke-linejoin: miter; stroke-linecap: square"/>
   </g>
   <g id="patch_6">
    <path d="M 135 69.12 
L 972 69.12 
" style="fill: none; stroke: #cccccc; stroke-width: 0.8; stroke-linejoin: miter; stroke-linecap: square"/>
   </g>
   <g id="text_14">
    <!-- Normalized Distribution of Song Lengths in Top 50 on Chart (2017-2022) -->
    <g style="fill: #262626" transform="translate(336.1275 63.12) scale(0.12 -0.12)">
     <defs>
      <path id="DejaVuSans-44" d="M 1259 4147 
L 1259 519 
L 2022 519 
Q 2988 519 3436 956 
Q 3884 1394 3884 2338 
Q 3884 3275 3436 3711 
Q 2988 4147 2022 4147 
L 1259 4147 
z
M 628 4666 
L 1925 4666 
Q 3281 4666 3915 4102 
Q 4550 3538 4550 2338 
Q 4550 1131 3912 565 
Q 3275 0 1925 0 
L 628 0 
L 628 4666 
z
" transform="scale(0.015625)"/>
      <path id="DejaVuSans-62" d="M 3116 1747 
Q 3116 2381 2855 2742 
Q 2594 3103 2138 3103 
Q 1681 3103 1420 2742 
Q 1159 2381 1159 1747 
Q 1159 1113 1420 752 
Q 1681 391 2138 391 
Q 2594 391 2855 752 
Q 3116 1113 3116 1747 
z
M 1159 2969 
Q 1341 3281 1617 3432 
Q 1894 3584 2278 3584 
Q 2916 3584 3314 3078 
Q 3713 2572 3713 1747 
Q 3713 922 3314 415 
Q 2916 -91 2278 -91 
Q 1894 -91 1617 61 
Q 1341 213 1159 525 
L 1159 0 
L 581 0 
L 581 4863 
L 1159 4863 
L 1159 2969 
z
" transform="scale(0.015625)"/>
      <path id="DejaVuSans-66" d="M 2375 4863 
L 2375 4384 
L 1825 4384 
Q 1516 4384 1395 4259 
Q 1275 4134 1275 3809 
L 1275 3500 
L 2222 3500 
L 2222 3053 
L 1275 3053 
L 1275 0 
L 697 0 
L 697 3053 
L 147 3053 
L 147 3500 
L 697 3500 
L 697 3744 
Q 697 4328 969 4595 
Q 1241 4863 1831 4863 
L 2375 4863 
z
" transform="scale(0.015625)"/>
      <path id="DejaVuSans-53" d="M 3425 4513 
L 3425 3897 
Q 3066 4069 2747 4153 
Q 2428 4238 2131 4238 
Q 1616 4238 1336 4038 
Q 1056 3838 1056 3469 
Q 1056 3159 1242 3001 
Q 1428 2844 1947 2747 
L 2328 2669 
Q 3034 2534 3370 2195 
Q 3706 1856 3706 1288 
Q 3706 609 3251 259 
Q 2797 -91 1919 -91 
Q 1588 -91 1214 -16 
Q 841 59 441 206 
L 441 856 
Q 825 641 1194 531 
Q 1563 422 1919 422 
Q 2459 422 2753 634 
Q 3047 847 3047 1241 
Q 3047 1584 2836 1778 
Q 2625 1972 2144 2069 
L 1759 2144 
Q 1053 2284 737 2584 
Q 422 2884 422 3419 
Q 422 4038 858 4394 
Q 1294 4750 2059 4750 
Q 2388 4750 2728 4690 
Q 3069 4631 3425 4513 
z
" transform="scale(0.015625)"/>
      <path id="DejaVuSans-54" d="M -19 4666 
L 3928 4666 
L 3928 4134 
L 2272 4134 
L 2272 0 
L 1638 0 
L 1638 4134 
L -19 4134 
L -19 4666 
z
" transform="scale(0.015625)"/>
      <path id="DejaVuSans-43" d="M 4122 4306 
L 4122 3641 
Q 3803 3938 3442 4084 
Q 3081 4231 2675 4231 
Q 1875 4231 1450 3742 
Q 1025 3253 1025 2328 
Q 1025 1406 1450 917 
Q 1875 428 2675 428 
Q 3081 428 3442 575 
Q 3803 722 4122 1019 
L 4122 359 
Q 3791 134 3420 21 
Q 3050 -91 2638 -91 
Q 1578 -91 968 557 
Q 359 1206 359 2328 
Q 359 3453 968 4101 
Q 1578 4750 2638 4750 
Q 3056 4750 3426 4639 
Q 3797 4528 4122 4306 
z
" transform="scale(0.015625)"/>
      <path id="DejaVuSans-37" d="M 525 4666 
L 3525 4666 
L 3525 4397 
L 1831 0 
L 1172 0 
L 2766 4134 
L 525 4134 
L 525 4666 
z
" transform="scale(0.015625)"/>
      <path id="DejaVuSans-2d" d="M 313 2009 
L 1997 2009 
L 1997 1497 
L 313 1497 
L 313 2009 
z
" transform="scale(0.015625)"/>
     </defs>
     <use xlink:href="#DejaVuSans-4e"/>
     <use xlink:href="#DejaVuSans-6f" x="74.804688"/>
     <use xlink:href="#DejaVuSans-72" x="135.986328"/>
     <use xlink:href="#DejaVuSans-6d" x="175.349609"/>
     <use xlink:href="#DejaVuSans-61" x="272.761719"/>
     <use xlink:href="#DejaVuSans-6c" x="334.041016"/>
     <use xlink:href="#DejaVuSans-69" x="361.824219"/>
     <use xlink:href="#DejaVuSans-7a" x="389.607422"/>
     <use xlink:href="#DejaVuSans-65" x="442.097656"/>
     <use xlink:href="#DejaVuSans-64" x="503.621094"/>
     <use xlink:href="#DejaVuSans-20" x="567.097656"/>
     <use xlink:href="#DejaVuSans-44" x="598.884766"/>
     <use xlink:href="#DejaVuSans-69" x="675.886719"/>
     <use xlink:href="#DejaVuSans-73" x="703.669922"/>
     <use xlink:href="#DejaVuSans-74" x="755.769531"/>
     <use xlink:href="#DejaVuSans-72" x="794.978516"/>
     <use xlink:href="#DejaVuSans-69" x="836.091797"/>
     <use xlink:href="#DejaVuSans-62" x="863.875"/>
     <use xlink:href="#DejaVuSans-75" x="927.351562"/>
     <use xlink:href="#DejaVuSans-74" x="990.730469"/>
     <use xlink:href="#DejaVuSans-69" x="1029.939453"/>
     <use xlink:href="#DejaVuSans-6f" x="1057.722656"/>
     <use xlink:href="#DejaVuSans-6e" x="1118.904297"/>
     <use xlink:href="#DejaVuSans-20" x="1182.283203"/>
     <use xlink:href="#DejaVuSans-6f" x="1214.070312"/>
     <use xlink:href="#DejaVuSans-66" x="1275.251953"/>
     <use xlink:href="#DejaVuSans-20" x="1310.457031"/>
     <use xlink:href="#DejaVuSans-53" x="1342.244141"/>
     <use xlink:href="#DejaVuSans-6f" x="1405.720703"/>
     <use xlink:href="#DejaVuSans-6e" x="1466.902344"/>
     <use xlink:href="#DejaVuSans-67" x="1530.28125"/>
     <use xlink:href="#DejaVuSans-20" x="1593.757812"/>
     <use xlink:href="#DejaVuSans-4c" x="1625.544922"/>
     <use xlink:href="#DejaVuSans-65" x="1679.507812"/>
     <use xlink:href="#DejaVuSans-6e" x="1741.03125"/>
     <use xlink:href="#DejaVuSans-67" x="1804.410156"/>
     <use xlink:href="#DejaVuSans-74" x="1867.886719"/>
     <use xlink:href="#DejaVuSans-68" x="1907.095703"/>
     <use xlink:href="#DejaVuSans-73" x="1970.474609"/>
     <use xlink:href="#DejaVuSans-20" x="2022.574219"/>
     <use xlink:href="#DejaVuSans-69" x="2054.361328"/>
     <use xlink:href="#DejaVuSans-6e" x="2082.144531"/>
     <use xlink:href="#DejaVuSans-20" x="2145.523438"/>
     <use xlink:href="#DejaVuSans-54" x="2177.310547"/>
     <use xlink:href="#DejaVuSans-6f" x="2221.394531"/>
     <use xlink:href="#DejaVuSans-70" x="2282.576172"/>
     <use xlink:href="#DejaVuSans-20" x="2346.052734"/>
     <use xlink:href="#DejaVuSans-35" x="2377.839844"/>
     <use xlink:href="#DejaVuSans-30" x="2441.462891"/>
     <use xlink:href="#DejaVuSans-20" x="2505.085938"/>
     <use xlink:href="#DejaVuSans-6f" x="2536.873047"/>
     <use xlink:href="#DejaVuSans-6e" x="2598.054688"/>
     <use xlink:href="#DejaVuSans-20" x="2661.433594"/>
     <use xlink:href="#DejaVuSans-43" x="2693.220703"/>
     <use xlink:href="#DejaVuSans-68" x="2763.044922"/>
     <use xlink:href="#DejaVuSans-61" x="2826.423828"/>
     <use xlink:href="#DejaVuSans-72" x="2887.703125"/>
     <use xlink:href="#DejaVuSans-74" x="2928.816406"/>
     <use xlink:href="#DejaVuSans-20" x="2968.025391"/>
     <use xlink:href="#DejaVuSans-28" x="2999.8125"/>
     <use xlink:href="#DejaVuSans-32" x="3038.826172"/>
     <use xlink:href="#DejaVuSans-30" x="3102.449219"/>
     <use xlink:href="#DejaVuSans-31" x="3166.072266"/>
     <use xlink:href="#DejaVuSans-37" x="3229.695312"/>
     <use xlink:href="#DejaVuSans-2d" x="3293.318359"/>
     <use xlink:href="#DejaVuSans-32" x="3329.402344"/>
     <use xlink:href="#DejaVuSans-30" x="3393.025391"/>
     <use xlink:href="#DejaVuSans-32" x="3456.648438"/>
     <use xlink:href="#DejaVuSans-32" x="3520.271484"/>
     <use xlink:href="#DejaVuSans-29" x="3583.894531"/>
    </g>
   </g>
   <g id="legend_1">
    <g id="patch_7">
     <path d="M 907.55 179.866875 
L 965 179.866875 
Q 967 179.866875 967 177.866875 
L 967 76.12 
Q 967 74.12 965 74.12 
L 907.55 74.12 
Q 905.55 74.12 905.55 76.12 
L 905.55 177.866875 
Q 905.55 179.866875 907.55 179.866875 
z
" style="fill: #ffffff; opacity: 0.8; stroke: #cccccc; stroke-linejoin: miter"/>
    </g>
    <g id="text_15">
     <!-- Year -->
     <g style="fill: #262626" transform="translate(925.6875 85.718438) scale(0.1 -0.1)">
      <defs>
       <path id="DejaVuSans-59" d="M -13 4666 
L 666 4666 
L 1959 2747 
L 3244 4666 
L 3922 4666 
L 2272 2222 
L 2272 0 
L 1638 0 
L 1638 2222 
L -13 4666 
z
" transform="scale(0.015625)"/>
      </defs>
      <use xlink:href="#DejaVuSans-59"/>
      <use xlink:href="#DejaVuSans-65" x="47.833984"/>
      <use xlink:href="#DejaVuSans-61" x="109.357422"/>
      <use xlink:href="#DejaVuSans-72" x="170.636719"/>
     </g>
    </g>
    <g id="line2d_18">
     <path d="M 909.55 96.896563 
L 919.55 96.896563 
L 929.55 96.896563 
" style="fill: none; stroke: #1f77b4; stroke-width: 1.5; stroke-linecap: round"/>
    </g>
    <g id="text_16">
     <!-- 2017 -->
     <g style="fill: #262626" transform="translate(937.55 100.396563) scale(0.1 -0.1)">
      <use xlink:href="#DejaVuSans-32"/>
      <use xlink:href="#DejaVuSans-30" x="63.623047"/>
      <use xlink:href="#DejaVuSans-31" x="127.246094"/>
      <use xlink:href="#DejaVuSans-37" x="190.869141"/>
     </g>
    </g>
    <g id="line2d_19">
     <path d="M 909.55 111.574688 
L 919.55 111.574688 
L 929.55 111.574688 
" style="fill: none; stroke: #ff7f0e; stroke-width: 1.5; stroke-linecap: round"/>
    </g>
    <g id="text_17">
     <!-- 2018 -->
     <g style="fill: #262626" transform="translate(937.55 115.074688) scale(0.1 -0.1)">
      <defs>
       <path id="DejaVuSans-38" d="M 2034 2216 
Q 1584 2216 1326 1975 
Q 1069 1734 1069 1313 
Q 1069 891 1326 650 
Q 1584 409 2034 409 
Q 2484 409 2743 651 
Q 3003 894 3003 1313 
Q 3003 1734 2745 1975 
Q 2488 2216 2034 2216 
z
M 1403 2484 
Q 997 2584 770 2862 
Q 544 3141 544 3541 
Q 544 4100 942 4425 
Q 1341 4750 2034 4750 
Q 2731 4750 3128 4425 
Q 3525 4100 3525 3541 
Q 3525 3141 3298 2862 
Q 3072 2584 2669 2484 
Q 3125 2378 3379 2068 
Q 3634 1759 3634 1313 
Q 3634 634 3220 271 
Q 2806 -91 2034 -91 
Q 1263 -91 848 271 
Q 434 634 434 1313 
Q 434 1759 690 2068 
Q 947 2378 1403 2484 
z
M 1172 3481 
Q 1172 3119 1398 2916 
Q 1625 2713 2034 2713 
Q 2441 2713 2670 2916 
Q 2900 3119 2900 3481 
Q 2900 3844 2670 4047 
Q 2441 4250 2034 4250 
Q 1625 4250 1398 4047 
Q 1172 3844 1172 3481 
z
" transform="scale(0.015625)"/>
      </defs>
      <use xlink:href="#DejaVuSans-32"/>
      <use xlink:href="#DejaVuSans-30" x="63.623047"/>
      <use xlink:href="#DejaVuSans-31" x="127.246094"/>
      <use xlink:href="#DejaVuSans-38" x="190.869141"/>
     </g>
    </g>
    <g id="line2d_20">
     <path d="M 909.55 126.252813 
L 919.55 126.252813 
L 929.55 126.252813 
" style="fill: none; stroke: #2ca02c; stroke-width: 1.5; stroke-linecap: round"/>
    </g>
    <g id="text_18">
     <!-- 2019 -->
     <g style="fill: #262626" transform="translate(937.55 129.752813) scale(0.1 -0.1)">
      <defs>
       <path id="DejaVuSans-39" d="M 703 97 
L 703 672 
Q 941 559 1184 500 
Q 1428 441 1663 441 
Q 2288 441 2617 861 
Q 2947 1281 2994 2138 
Q 2813 1869 2534 1725 
Q 2256 1581 1919 1581 
Q 1219 1581 811 2004 
Q 403 2428 403 3163 
Q 403 3881 828 4315 
Q 1253 4750 1959 4750 
Q 2769 4750 3195 4129 
Q 3622 3509 3622 2328 
Q 3622 1225 3098 567 
Q 2575 -91 1691 -91 
Q 1453 -91 1209 -44 
Q 966 3 703 97 
z
M 1959 2075 
Q 2384 2075 2632 2365 
Q 2881 2656 2881 3163 
Q 2881 3666 2632 3958 
Q 2384 4250 1959 4250 
Q 1534 4250 1286 3958 
Q 1038 3666 1038 3163 
Q 1038 2656 1286 2365 
Q 1534 2075 1959 2075 
z
" transform="scale(0.015625)"/>
      </defs>
      <use xlink:href="#DejaVuSans-32"/>
      <use xlink:href="#DejaVuSans-30" x="63.623047"/>
      <use xlink:href="#DejaVuSans-31" x="127.246094"/>
      <use xlink:href="#DejaVuSans-39" x="190.869141"/>
     </g>
    </g>
    <g id="line2d_21">
     <path d="M 909.55 140.930938 
L 919.55 140.930938 
L 929.55 140.930938 
" style="fill: none; stroke: #d62728; stroke-width: 1.5; stroke-linecap: round"/>
    </g>
    <g id="text_19">
     <!-- 2020 -->
     <g style="fill: #262626" transform="translate(937.55 144.430938) scale(0.1 -0.1)">
      <use xlink:href="#DejaVuSans-32"/>
      <use xlink:href="#DejaVuSans-30" x="63.623047"/>
      <use xlink:href="#DejaVuSans-32" x="127.246094"/>
      <use xlink:href="#DejaVuSans-30" x="190.869141"/>
     </g>
    </g>
    <g id="line2d_22">
     <path d="M 909.55 155.609063 
L 919.55 155.609063 
L 929.55 155.609063 
" style="fill: none; stroke: #9467bd; stroke-width: 1.5; stroke-linecap: round"/>
    </g>
    <g id="text_20">
     <!-- 2021 -->
     <g style="fill: #262626" transform="translate(937.55 159.109063) scale(0.1 -0.1)">
      <use xlink:href="#DejaVuSans-32"/>
      <use xlink:href="#DejaVuSans-30" x="63.623047"/>
      <use xlink:href="#DejaVuSans-32" x="127.246094"/>
      <use xlink:href="#DejaVuSans-31" x="190.869141"/>
     </g>
    </g>
    <g id="line2d_23">
     <path d="M 909.55 170.287188 
L 919.55 170.287188 
L 929.55 170.287188 
" style="fill: none; stroke: #8c564b; stroke-width: 1.5; stroke-linecap: round"/>
    </g>
    <g id="text_21">
     <!-- 2022 -->
     <g style="fill: #262626" transform="translate(937.55 173.787188) scale(0.1 -0.1)">
      <use xlink:href="#DejaVuSans-32"/>
      <use xlink:href="#DejaVuSans-30" x="63.623047"/>
      <use xlink:href="#DejaVuSans-32" x="127.246094"/>
      <use xlink:href="#DejaVuSans-32" x="190.869141"/>
     </g>
    </g>
   </g>
  </g>
 </g>
 <defs>
  <clipPath id="p777c4c1037">
   <rect x="135" y="69.12" width="837" height="443.52"/>
  </clipPath>
 </defs>
</svg>
